<svg xmlns="http://www.w3.org/2000/svg" xmlns:xlink="http://www.w3.org/1999/xlink" fill="#000000" height="512" width="512" version="1.1" xml:space="preserve"><rect id="backgroundrect" width="100%" height="100%" x="0" y="0" fill="none" stroke="none"/>

<g class="currentLayer" style=""><title>Layer 1</title><g id="svg_1" class="selected" fill-opacity="1" fill="#f21d1d">
	<g id="svg_2" fill="#f21d1d">
		<path d="M495.304,26.96H16.696C7.475,26.96,0,34.435,0,43.655c0,3.355,0,331.922,0,335.026c0,9.22,7.475,16.696,16.696,16.696    h177.122l-16.688,56.272h-42.881c-9.22,0-16.696,7.475-16.696,16.696c0,9.22,7.475,16.696,16.696,16.696    c2.413,0,239.003,0,243.503,0c9.22,0,16.696-7.475,16.696-16.696c0-9.22-7.475-16.696-16.696-16.696H334.87l-16.688-56.272    h177.122c9.22,0,16.696-7.475,16.696-16.696c0-2.876,0-331.631,0-335.026C512,34.435,504.525,26.96,495.304,26.96z     M152.159,101.869c-0.001-9.22,7.474-16.696,16.695-16.696h174.294c9.22,0,16.696,7.475,16.696,16.696v135.418l-61.45-80.786    c-4.316-5.674-12.859-5.668-17.171,0l-11.668,15.34l12.507,16.442c3.606,4.742,2.687,11.509-2.055,15.116    c-4.742,3.606-11.509,2.687-15.116-2.055c-7.483-9.837-19.566-25.722-34.11-44.843c-4.311-5.667-12.855-5.674-17.171,0    l-61.45,80.786V101.869z M478.609,361.986H33.391v-42.04h445.217V361.986z" id="svg_3" fill="#f21d1d"/>
	</g>
</g></g></svg>